<mxfile host="app.diagrams.net" modified="2023-12-19T13:22:26.523Z" agent="Mozilla/5.0 (Windows NT 10.0; Win64; x64) AppleWebKit/537.36 (KHTML, like Gecko) Chrome/120.0.0.0 Safari/537.36 Edg/120.0.0.0" etag="m1Fv4GL9n-X-N6AwPSil" version="22.1.11" type="device">
  <diagram name="Страница — 1" id="eXI4pDLPb9RYVG2KSNhp">
    <mxGraphModel dx="746" dy="467" grid="1" gridSize="10" guides="1" tooltips="1" connect="1" arrows="1" fold="1" page="1" pageScale="1" pageWidth="827" pageHeight="1169" math="0" shadow="0">
      <root>
        <mxCell id="0" />
        <mxCell id="1" parent="0" />
        <mxCell id="FUk5epU8InFqBVGmTX5W-1" value="" style="whiteSpace=wrap;html=1;aspect=fixed;" vertex="1" parent="1">
          <mxGeometry x="190" y="60" width="360" height="360" as="geometry" />
        </mxCell>
        <mxCell id="FUk5epU8InFqBVGmTX5W-6" value="" style="rounded=1;whiteSpace=wrap;html=1;" vertex="1" parent="1">
          <mxGeometry x="265" y="340" width="80" height="20" as="geometry" />
        </mxCell>
        <mxCell id="FUk5epU8InFqBVGmTX5W-9" value="" style="rounded=0;whiteSpace=wrap;html=1;" vertex="1" parent="1">
          <mxGeometry x="265" y="90" width="210" height="220" as="geometry" />
        </mxCell>
        <mxCell id="FUk5epU8InFqBVGmTX5W-10" value="" style="rounded=0;whiteSpace=wrap;html=1;" vertex="1" parent="1">
          <mxGeometry x="285" y="110" width="30" height="30" as="geometry" />
        </mxCell>
        <mxCell id="FUk5epU8InFqBVGmTX5W-11" value="" style="rounded=0;whiteSpace=wrap;html=1;" vertex="1" parent="1">
          <mxGeometry x="325" y="110" width="30" height="30" as="geometry" />
        </mxCell>
        <mxCell id="FUk5epU8InFqBVGmTX5W-12" value="" style="rounded=0;whiteSpace=wrap;html=1;" vertex="1" parent="1">
          <mxGeometry x="363.5" y="110" width="30" height="30" as="geometry" />
        </mxCell>
        <mxCell id="FUk5epU8InFqBVGmTX5W-13" value="" style="rounded=0;whiteSpace=wrap;html=1;" vertex="1" parent="1">
          <mxGeometry x="405" y="110" width="30" height="30" as="geometry" />
        </mxCell>
        <mxCell id="FUk5epU8InFqBVGmTX5W-15" value="" style="rounded=1;whiteSpace=wrap;html=1;" vertex="1" parent="1">
          <mxGeometry x="393.5" y="340" width="80" height="20" as="geometry" />
        </mxCell>
      </root>
    </mxGraphModel>
  </diagram>
</mxfile>
